<svg version="1.1" id="Layer_1" xmlns="http://www.w3.org/2000/svg" xmlns:xlink="http://www.w3.org/1999/xlink" x="0px" y="0px"
	width="100%" viewBox="0 0 225 225" enable-background="new 0 0 225 225" xml:space="preserve">
<path fill="#FEFEFE" opacity="1.000000" stroke="none" 
	d="
M127.000000,1.000000
	C159.983551,1.000000 192.967087,1.000000 225.975311,1.000000 
	C225.975311,75.946136 225.975311,150.892288 225.975311,225.919220 
	C151.091324,225.919220 76.182549,225.919220 1.136880,225.919220 
	C1.136880,151.000153 1.136880,76.000122 1.136880,1.000000 
	C35.430092,1.000000 69.746384,1.000000 104.405251,1.376805 
	C100.845375,2.519394 96.873161,3.033491 93.052101,4.092819 
	C72.143784,9.889321 57.493172,22.076078 52.825146,44.184322 
	C51.712841,49.452316 53.348553,51.468208 58.791874,52.002800 
	C66.404106,52.750401 74.064781,53.192444 81.609573,54.373249 
	C86.652252,55.162449 88.987549,53.494888 90.161469,48.700912 
	C92.409134,39.521992 98.685326,34.349072 107.713020,32.375423 
	C119.080284,29.890299 129.514862,34.624771 131.960876,44.276493 
	C133.593964,50.720444 133.497818,57.602619 134.163147,64.166237 
	C121.494766,65.864883 109.947876,67.138359 98.496651,69.000221 
	C64.383362,74.546730 44.830132,95.525696 47.890350,129.661896 
	C49.483318,147.431229 60.726288,162.075485 77.703827,165.946793 
	C98.546646,170.699463 117.630585,167.074539 133.652145,151.922379 
	C135.446655,150.225235 137.242706,148.529678 138.762146,147.094070 
	C143.718933,152.759933 148.252655,158.451141 153.336288,163.599380 
	C157.766006,168.085403 160.198685,167.811005 164.909821,163.690964 
	C170.672989,158.650879 176.425064,153.597733 182.224182,148.599243 
	C188.270111,143.388000 188.627853,142.223053 183.625000,136.052673 
	C176.799896,127.634781 174.011749,118.181870 174.131104,107.416527 
	C174.356323,87.099686 174.380814,66.773048 174.009079,46.459259 
	C173.620499,25.222887 162.886047,11.342095 142.521515,4.983167 
	C137.429565,3.393182 132.178131,2.313967 127.000000,1.000000 
M143.202057,217.875763 
	C156.977448,214.369568 170.127258,209.269684 181.851227,201.174255 
	C187.549133,197.239838 192.649887,192.405441 197.776459,187.711426 
	C198.691223,186.873840 198.407394,184.727173 198.677002,183.184967 
	C197.149612,183.134613 195.433640,182.603577 194.127121,183.116180 
	C188.110825,185.476639 182.289749,188.340836 176.252594,190.640991 
	C134.609604,206.506989 92.902374,208.235687 51.632015,189.742630 
	C38.493271,183.855240 26.186083,176.121338 13.424129,169.372787 
	C11.716353,168.469727 9.570269,168.395523 7.627162,167.937485 
	C8.400999,169.867142 8.683130,172.287476 10.034058,173.641251 
	C15.784568,179.403854 21.470768,185.338409 27.866541,190.331314 
	C61.800751,216.822388 99.591484,227.897079 143.202057,217.875763 
M217.359344,166.922195 
	C203.482529,162.807755 182.741577,166.912521 179.154083,174.989395 
	C181.025681,174.818146 182.605087,174.596680 184.190262,174.541946 
	C190.976730,174.307663 197.765289,173.959793 204.552338,173.975449 
	C209.237839,173.986237 211.274902,176.834335 210.137039,181.262329 
	C208.453354,187.814346 206.346985,194.258118 204.402130,200.742432 
	C203.911179,202.379272 203.350266,203.995117 202.821503,205.620621 
	C203.206985,205.908386 203.592468,206.196167 203.977936,206.483932 
	C205.580048,205.260757 207.403687,204.241440 208.747711,202.780792 
	C216.494705,194.361450 219.938965,184.073013 220.852493,172.921661 
	C221.003220,171.081955 219.108322,169.074677 217.359344,166.922195 
z"/>
<path fill="#010101" opacity="1.000000" stroke="none" 
	d="
M126.531418,1.000000 
	C132.178131,2.313967 137.429565,3.393182 142.521515,4.983167 
	C162.886047,11.342095 173.620499,25.222887 174.009079,46.459259 
	C174.380814,66.773048 174.356323,87.099686 174.131104,107.416527 
	C174.011749,118.181870 176.799896,127.634781 183.625000,136.052673 
	C188.627853,142.223053 188.270111,143.388000 182.224182,148.599243 
	C176.425064,153.597733 170.672989,158.650879 164.909821,163.690964 
	C160.198685,167.811005 157.766006,168.085403 153.336288,163.599380 
	C148.252655,158.451141 143.718933,152.759933 138.762146,147.094070 
	C137.242706,148.529678 135.446655,150.225235 133.652145,151.922379 
	C117.630585,167.074539 98.546646,170.699463 77.703827,165.946793 
	C60.726288,162.075485 49.483318,147.431229 47.890350,129.661896 
	C44.830132,95.525696 64.383362,74.546730 98.496651,69.000221 
	C109.947876,67.138359 121.494766,65.864883 134.163147,64.166237 
	C133.497818,57.602619 133.593964,50.720444 131.960876,44.276493 
	C129.514862,34.624771 119.080284,29.890299 107.713020,32.375423 
	C98.685326,34.349072 92.409134,39.521992 90.161469,48.700912 
	C88.987549,53.494888 86.652252,55.162449 81.609573,54.373249 
	C74.064781,53.192444 66.404106,52.750401 58.791874,52.002800 
	C53.348553,51.468208 51.712841,49.452316 52.825146,44.184322 
	C57.493172,22.076078 72.143784,9.889321 93.052101,4.092819 
	C96.873161,3.033491 100.845375,2.519394 104.873909,1.376805 
	C112.020950,1.000000 119.041893,1.000000 126.531418,1.000000 
M92.279785,128.950470 
	C94.962761,133.861832 98.710197,137.233047 104.496925,138.157608 
	C113.585617,139.609741 122.352798,134.998657 127.901321,125.497253 
	C134.738312,113.789467 133.527710,100.943069 133.587631,87.555840 
	C127.268318,88.117661 121.426453,88.221527 115.740631,89.216797 
	C94.754211,92.890350 85.246460,108.694496 92.279785,128.950470 
z"/>
<path fill="#FF9903" opacity="1.000000" stroke="none" 
	d="
M142.791718,217.943329 
	C99.591484,227.897079 61.800751,216.822388 27.866541,190.331314 
	C21.470768,185.338409 15.784568,179.403854 10.034058,173.641251 
	C8.683130,172.287476 8.400999,169.867142 7.627162,167.937469 
	C9.570269,168.395523 11.716353,168.469727 13.424129,169.372787 
	C26.186083,176.121338 38.493271,183.855240 51.632015,189.742630 
	C92.902374,208.235687 134.609604,206.506989 176.252594,190.640991 
	C182.289749,188.340836 188.110825,185.476639 194.127121,183.116180 
	C195.433640,182.603577 197.149612,183.134613 198.677002,183.184967 
	C198.407394,184.727173 198.691223,186.873840 197.776459,187.711426 
	C192.649887,192.405441 187.549133,197.239838 181.851227,201.174255 
	C170.127258,209.269684 156.977448,214.369568 142.791718,217.943329 
z"/>
<path fill="#FF9A08" opacity="1.000000" stroke="none" 
	d="
M217.759064,167.033524 
	C219.108322,169.074677 221.003220,171.081955 220.852493,172.921661 
	C219.938965,184.073013 216.494705,194.361450 208.747711,202.780792 
	C207.403687,204.241440 205.580048,205.260757 203.977936,206.483932 
	C203.592468,206.196167 203.206985,205.908386 202.821503,205.620621 
	C203.350266,203.995117 203.911179,202.379272 204.402130,200.742432 
	C206.346985,194.258118 208.453354,187.814346 210.137039,181.262329 
	C211.274902,176.834335 209.237839,173.986237 204.552338,173.975449 
	C197.765289,173.959793 190.976730,174.307663 184.190262,174.541946 
	C182.605087,174.596680 181.025681,174.818146 179.154083,174.989395 
	C182.741577,166.912521 203.482529,162.807755 217.759064,167.033524 
z"/>
<path fill="#FCFCFC" opacity="1.000000" stroke="none" 
	d="
M92.139107,128.590820 
	C85.246460,108.694496 94.754211,92.890350 115.740631,89.216797 
	C121.426453,88.221527 127.268318,88.117661 133.587631,87.555840 
	C133.527710,100.943069 134.738312,113.789467 127.901321,125.497253 
	C122.352798,134.998657 113.585617,139.609741 104.496925,138.157608 
	C98.710197,137.233047 94.962761,133.861832 92.139107,128.590820 
z"/>
</svg>